<svg xmlns="http://www.w3.org/2000/svg" width="24.8" height="38.246" viewBox="0 0 24.8 38.246"><path fill="#fff" d="M12.418,32.132,5.712,25.043,7.883,22.99l4.529,4.788,4.5-4.785,2.176,2.048ZM24.8,29.283V8.964A8.974,8.974,0,0,0,15.836,0H8.964A8.974,8.974,0,0,0,0,8.964V29.283a8.974,8.974,0,0,0,8.964,8.964h6.872A8.974,8.974,0,0,0,24.8,29.283ZM15.836,2.988a5.983,5.983,0,0,1,5.976,5.976V29.283a5.983,5.983,0,0,1-5.976,5.976H8.964a5.983,5.983,0,0,1-5.976-5.976V8.964A5.983,5.983,0,0,1,8.964,2.988ZM12.4,6.051a1.494,1.494,0,1,0,1.494,1.494A1.494,1.494,0,0,0,12.4,6.051Zm0,5.976a1.494,1.494,0,1,0,1.494,1.494A1.494,1.494,0,0,0,12.4,12.027ZM12.4,18A1.494,1.494,0,1,0,13.894,19.5,1.494,1.494,0,0,0,12.4,18Zm0,0" opacity=".8" transform="translate(0 0)"/></svg>